<svg width="41" height="41" viewBox="0 0 41 41" fill="none" xmlns="http://www.w3.org/2000/svg">
<path d="M2.4091 22.7753C1.74719 18.4679 1.41623 16.3143 2.23056 14.4051C3.04488 12.4959 4.85155 11.1896 8.46488 8.57699L11.1646 6.625C15.6595 3.37501 17.9071 1.75 20.5002 1.75C23.0935 1.75 25.3409 3.37501 29.8358 6.625L32.5356 8.57699C36.149 11.1896 37.9557 12.4959 38.77 14.4051C39.5843 16.3143 39.2534 18.4679 38.5913 22.7753L38.027 26.4483C37.0887 32.5542 36.6194 35.6073 34.4296 37.4286C32.2398 39.25 29.0384 39.25 22.6355 39.25H18.365C11.9621 39.25 8.7607 39.25 6.57087 37.4286C4.38104 35.6073 3.91188 32.5542 2.97355 26.4483L2.4091 22.7753Z" fill="#1C1C1C" stroke="#1C1C1C" stroke-width="2" stroke-linejoin="round"/>
</svg>
